<svg class="am-diagram" font-family="-apple-system, BlinkMacSystemFont, 'Segoe UI', 'PingFang SC', 'Hiragino Sans GB', 'Microsoft YaHei', Roboto, 'Helvetica Neue', Arial, sans-serif" viewBox="-24 -24 580 777" width="580" height="777" role="img" aria-label="流程图：总调度 main、代码开发与交付 engineer-legion、联网查证与浏览器 web-legion、脚本运维与杂项 ops-legion、风格写作 writer、记忆检索 memory、多视角分析 magi-sage、专家咨询 advisor" xmlns="http://www.w3.org/2000/svg"><style>
.am-diagram text{fill:#16181d;font-size:13px}
.am-node-shape{fill:#ffffff;stroke:#1d2026;stroke-width:1.5}
.am-node--hi .am-node-shape{fill:#e4ecf8;stroke:#1d5fbf}
.am-node--hi text{fill:#1d5fbf;font-weight:600}
.am-edge{fill:none;stroke:#4b5260;stroke-width:1.3}
.am-arrow{fill:#4b5260}
</style><defs><marker id="am2-arrow" viewBox="0 0 10 10" refX="9" refY="5" markerWidth="7" markerHeight="7" orient="auto-start-reverse"><path class="am-arrow" d="M0,0 L10,5 L0,10 z"/></marker></defs><rect x="-24" y="-24" width="580" height="777" fill="#f6f6f3"/><g></g><g><g data-step="0"><path class="am-edge" d="M69.9,280.5 L103.9,387.5 Q137.8,494.5 158.9,494.5 L180,494.5" marker-end="url(#am2-arrow)"/></g><g data-step="0"><path class="am-edge" d="M82.9,245.5 L110.3,219.5 Q137.8,193.5 157.1,193.5 L176.4,193.5" marker-end="url(#am2-arrow)"/></g><g data-step="0"><path class="am-edge" d="M70.2,245.5 L104,143.5 Q137.8,41.5 160.4,41.5 L182.9,41.5" marker-end="url(#am2-arrow)"/></g><g data-step="1"><path class="am-edge" d="M73.5,245.5 L105.7,184 Q137.8,122.5 190.1,122.5 Q242.4,122.5 294.7,122.5 Q347,122.5 365.6,118.7 L384.2,114.8" marker-end="url(#am2-arrow)"/></g><g data-step="1"><path class="am-edge" d="M114.8,269.9 L126.3,271.4 Q137.8,273 157,273 L176.3,273" marker-end="url(#am2-arrow)"/></g><g data-step="1"><path class="am-edge" d="M80.3,280.5 L109,312.3 Q137.8,344 149.3,344 L160.8,344" marker-end="url(#am2-arrow)"/></g><g data-step="1"><path class="am-edge" d="M72.9,280.5 L105.3,347.8 Q137.8,415 157.9,415 L178.1,415" marker-end="url(#am2-arrow)"/></g><g data-step="2"><path class="am-edge" d="M255.8,520.5 L301.4,609 Q347,697.5 369,697.5 L391.1,697.5" marker-end="url(#am2-arrow)"/></g><g data-step="2"><path class="am-edge" d="M263,520.5 L305,573.5 Q347,626.5 369.3,626.5 L391.6,626.5" marker-end="url(#am2-arrow)"/></g><g data-step="2"><path class="am-edge" d="M287,520.5 L317,538 Q347,555.5 359.3,555.5 L371.6,555.5" marker-end="url(#am2-arrow)"/></g><g data-step="2"><path class="am-edge" d="M304.8,488.5 L325.9,486.5 Q347,484.5 361.2,484.5 L375.3,484.5" marker-end="url(#am2-arrow)"/></g><g data-step="2"><path class="am-edge" d="M263.9,468.5 L305.4,418.3 Q347,368 362.2,364 L377.3,360" marker-end="url(#am2-arrow)"/></g><g data-step="2"><path class="am-edge" d="M276,468.5 L311.5,441 Q347,413.5 363.1,413.5 L379.1,413.5" marker-end="url(#am2-arrow)"/></g><g data-step="2"><path class="am-edge" d="M249.3,468.5 L298.2,285.5 Q347,102.5 365.6,102.5 L384.2,102.5" marker-end="url(#am2-arrow)"/></g><g data-step="3"><path class="am-edge" d="M277.3,219.5 L312.1,245.5 Q347,271.5 358.5,271.5 L370,271.5" marker-end="url(#am2-arrow)"/></g><g data-step="3"><path class="am-edge" d="M308.4,181.8 L327.7,178.4 Q347,175 359,175 L370.9,175" marker-end="url(#am2-arrow)"/></g><g data-step="4"><path class="am-edge" d="M252.3,67.5 L299.6,192.3 Q347,317 362.2,321 L377.3,325" marker-end="url(#am2-arrow)"/></g><g data-step="4"><path class="am-edge" d="M301.9,35.8 L324.5,33.7 Q347,31.5 367.9,31.5 L388.7,31.5" marker-end="url(#am2-arrow)"/></g><g data-step="4"><path class="am-edge" d="M301.9,56 L324.5,61.5 Q347,67 371.5,76 L396,85" marker-end="url(#am2-arrow)"/></g></g><g><g class="am-node am-node--rect am-node--hi" data-key="总调度 main" data-step="0"><rect class="am-node-shape" x="14" y="245.5" width="100.8" height="35" rx="3"/><text x="64.4" y="263" text-anchor="middle" dominant-baseline="central">总调度 main</text></g><g class="am-node am-node--rect am-node--hi" data-key="代码开发与交付 engineer-legion" data-step="0"><rect class="am-node-shape" x="180" y="468.5" width="124.7" height="52" rx="3"/><text x="242.4" y="486" text-anchor="middle" dominant-baseline="central">代码开发与交付</text><text x="242.4" y="503" text-anchor="middle" dominant-baseline="central">engineer-legion</text></g><g class="am-node am-node--rect am-node--hi" data-key="联网查证与浏览器 web-legion" data-step="0"><rect class="am-node-shape" x="176.4" y="167.5" width="132" height="52" rx="3"/><text x="242.4" y="185" text-anchor="middle" dominant-baseline="central">联网查证与浏览器</text><text x="242.4" y="202" text-anchor="middle" dominant-baseline="central">web-legion</text></g><g class="am-node am-node--rect am-node--hi" data-key="脚本运维与杂项 ops-legion" data-step="0"><rect class="am-node-shape" x="182.9" y="15.5" width="119" height="52" rx="3"/><text x="242.4" y="33" text-anchor="middle" dominant-baseline="central">脚本运维与杂项</text><text x="242.4" y="50" text-anchor="middle" dominant-baseline="central">ops-legion</text></g><g class="am-node am-node--rect" data-key="风格写作 writer" data-step="1"><rect class="am-node-shape" x="384.2" y="85" width="119" height="35" rx="3"/><text x="443.7" y="102.5" text-anchor="middle" dominant-baseline="central">风格写作 writer</text></g><g class="am-node am-node--rect" data-key="记忆检索 memory" data-step="1"><rect class="am-node-shape" x="176.3" y="255.5" width="132.3" height="35" rx="3"/><text x="242.4" y="273" text-anchor="middle" dominant-baseline="central">记忆检索 memory</text></g><g class="am-node am-node--rect" data-key="多视角分析 magi-sage" data-step="1"><rect class="am-node-shape" x="160.8" y="326.5" width="163.2" height="35" rx="3"/><text x="242.4" y="344" text-anchor="middle" dominant-baseline="central">多视角分析 magi-sage</text></g><g class="am-node am-node--rect" data-key="专家咨询 advisor" data-step="1"><rect class="am-node-shape" x="178.1" y="397.5" width="128.6" height="35" rx="3"/><text x="242.4" y="415" text-anchor="middle" dominant-baseline="central">专家咨询 advisor</text></g><g class="am-node am-node--rect" data-key="写测试 tester" data-step="2"><rect class="am-node-shape" x="391.1" y="680" width="105.2" height="35" rx="3"/><text x="443.7" y="697.5" text-anchor="middle" dominant-baseline="central">写测试 tester</text></g><g class="am-node am-node--rect" data-key="写代码 coder" data-step="2"><rect class="am-node-shape" x="391.6" y="609" width="104.2" height="35" rx="3"/><text x="443.7" y="626.5" text-anchor="middle" dominant-baseline="central">写代码 coder</text></g><g class="am-node am-node--rect" data-key="轻量执行 coder-lite" data-step="2"><rect class="am-node-shape" x="371.6" y="538" width="144.2" height="35" rx="3"/><text x="443.7" y="555.5" text-anchor="middle" dominant-baseline="central">轻量执行 coder-lite</text></g><g class="am-node am-node--rect" data-key="盲审变更 reviewer" data-step="2"><rect class="am-node-shape" x="375.3" y="467" width="136.7" height="35" rx="3"/><text x="443.7" y="484.5" text-anchor="middle" dominant-baseline="central">盲审变更 reviewer</text></g><g class="am-node am-node--rect" data-key="执行命令 executor" data-step="2"><rect class="am-node-shape" x="375.7" y="325" width="135.9" height="35" rx="3"/><text x="443.7" y="342.5" text-anchor="middle" dominant-baseline="central">执行命令 executor</text></g><g class="am-node am-node--rect" data-key="绘图 diagrammer" data-step="2"><rect class="am-node-shape" x="379.1" y="396" width="129.1" height="35" rx="3"/><text x="443.7" y="413.5" text-anchor="middle" dominant-baseline="central">绘图 diagrammer</text></g><g class="am-node am-node--rect" data-key="搜索查证 researcher" data-step="3"><rect class="am-node-shape" x="370" y="254" width="147.3" height="35" rx="3"/><text x="443.7" y="271.5" text-anchor="middle" dominant-baseline="central">搜索查证 researcher</text></g><g class="am-node am-node--rect" data-key="浏览器操作 browser" data-step="3"><rect class="am-node-shape" x="370.9" y="157.5" width="145.5" height="35" rx="3"/><text x="443.7" y="175" text-anchor="middle" dominant-baseline="central">浏览器操作 browser</text></g><g class="am-node am-node--rect" data-key="杂项任务 jack" data-step="4"><rect class="am-node-shape" x="388.7" y="14" width="109.9" height="35" rx="3"/><text x="443.7" y="31.5" text-anchor="middle" dominant-baseline="central">杂项任务 jack</text></g></g></svg>